<svg width="244" height="52" viewBox="0 0 244 52" fill="none" xmlns="http://www.w3.org/2000/svg">
<g clip-path="url(#clip0)">
<path d="M16.3015 0.774495C17.8264 0.774495 19.2085 0.907005 20.4481 1.17544C21.6877 1.44422 22.7519 1.87181 23.6436 2.45513C24.5317 3.03844 25.2146 3.7973 25.6917 4.72897C26.1692 5.65689 26.4079 6.80371 26.4079 8.15955C26.4079 10.2445 25.7881 11.8388 24.5483 12.9392C23.3086 14.0498 21.6414 14.7888 19.5432 15.1666L25.8841 24.166C26.1061 24.4808 26.368 24.6699 26.6696 24.733C26.9712 24.7956 27.2497 24.829 27.5049 24.829V25.6775H18.5885V24.829C18.8769 24.829 19.1221 24.7793 19.3279 24.6829C19.5332 24.5902 19.6394 24.4641 19.6394 24.3053C19.6394 24.1495 19.5762 23.9704 19.447 23.7616C19.3212 23.5562 19.1288 23.281 18.8769 22.9296L13.6331 15.548H6.81496V23.9737C6.81496 24.2588 6.91769 24.4708 7.1266 24.6135C7.33206 24.7559 7.70319 24.829 8.24682 24.829V25.6775H0V24.829C0.921442 24.829 1.38223 24.5405 1.38223 23.9737V2.478C1.38223 1.91142 0.921442 1.62967 0 1.62967V0.774495H16.3015ZM15.0618 11.8555C16.2055 11.8555 17.1598 11.7691 17.9224 11.5936C18.6848 11.4211 19.288 11.1759 19.7322 10.8576C20.1795 10.5427 20.4978 10.1715 20.6869 9.74729C20.8756 9.31971 20.9718 8.85558 20.9718 8.35183C20.9718 7.84467 20.8756 7.38055 20.6869 6.95296C20.4978 6.52538 20.1795 6.15414 19.7322 5.83926C19.288 5.52438 18.6848 5.27917 17.9224 5.1067C17.1598 4.93423 16.2055 4.84816 15.0618 4.84816H6.81496V11.8555H15.0618Z" fill="#231F20"/>
<path d="M40.7563 24.8281C41.5818 24.8281 41.9961 24.543 41.9961 23.9729V2.48093C41.9961 1.91059 41.5818 1.62883 40.7563 1.62883V0.773662H48.6684V1.62883C47.8433 1.62883 47.4287 1.91059 47.4287 2.48093V23.9729C47.4287 24.543 47.8433 24.8281 48.6684 24.8281V25.6799H40.7563V24.8281" fill="#231F20"/>
<path d="M82.7507 1.27024C84.5638 1.79414 86.2144 2.57281 87.7092 3.61684C89.2044 4.65472 90.4274 5.97709 91.3819 7.5679C92.3331 9.16246 92.8105 11.0483 92.8105 13.2296C92.8105 15.4038 92.3331 17.2931 91.3819 18.8842C90.4274 20.482 89.2044 21.7978 87.7092 22.8387C86.2144 23.8795 84.5638 24.6384 82.7507 25.1123C80.9406 25.5866 79.1609 25.8218 77.414 25.8218C75.6641 25.8218 73.8837 25.5866 72.074 25.1123C70.2643 24.6384 68.6103 23.8795 67.1155 22.8387C65.6206 21.7978 64.4007 20.482 63.4462 18.8842C62.4913 17.2931 62.0142 15.4038 62.0142 13.2296C62.0142 11.0483 62.4913 9.16246 63.4462 7.5679C64.4007 5.97709 65.6206 4.65472 67.1155 3.61684C68.6103 2.57281 70.2643 1.79414 72.074 1.27024C73.8837 0.753179 75.6641 0.48782 77.414 0.48782C79.1609 0.48782 80.9406 0.753179 82.7507 1.27024ZM73.7912 5.41358C72.5812 5.79472 71.4941 6.33842 70.5228 7.05118C69.555 7.7571 68.7695 8.63549 68.166 9.67611C67.5629 10.7171 67.2613 11.9001 67.2613 13.2296C67.2613 14.552 67.5629 15.7354 68.166 16.776C68.7695 17.8203 69.555 18.6986 70.5228 19.4081C71.4941 20.1173 72.5812 20.6609 73.7912 21.0387C74.9944 21.4167 76.204 21.6056 77.414 21.6056C78.6206 21.6056 79.8272 21.4167 81.0369 21.0387C82.2435 20.6609 83.3306 20.1173 84.3019 19.4081C85.2697 18.6986 86.0586 17.8203 86.6618 16.776C87.2652 15.7354 87.5668 14.552 87.5668 13.2296C87.5668 11.9001 87.2652 10.7171 86.6618 9.67611C86.0586 8.63549 85.2697 7.7571 84.3019 7.05118C83.3306 6.33842 82.2435 5.79472 81.0369 5.41358C79.8272 5.03552 78.6206 4.84666 77.414 4.84666C76.204 4.84666 74.9944 5.03552 73.7912 5.41358" fill="#231F20"/>
<path d="M165.154 22.188C165.058 22.188 164.972 22.1782 164.892 22.1648C164.812 22.1482 164.723 22.1383 164.633 22.1383C164.438 22.1383 163.987 22.3306 163.271 22.7084C162.558 23.0863 161.65 23.5139 160.556 23.988C159.459 24.4587 158.21 24.8696 156.811 25.2175C155.415 25.569 153.95 25.738 152.425 25.738C150.427 25.738 148.501 25.4859 146.658 24.9823C144.815 24.4784 143.188 23.6961 141.772 22.6389C140.357 21.5815 139.237 20.2622 138.411 18.6846C137.586 17.1067 137.175 15.2604 137.175 13.1457C137.175 11.0611 137.586 9.22469 138.411 7.63013C139.237 6.03556 140.357 4.70021 141.772 3.62954C143.188 2.55512 144.815 1.74981 146.658 1.21294C148.501 0.676066 150.427 0.407285 152.425 0.407285C154.046 0.407285 155.515 0.533651 156.837 0.785352C158.153 1.04081 159.307 1.30924 160.291 1.59066C161.276 1.87583 162.058 2.14427 162.628 2.39631C163.198 2.64835 163.55 2.77745 163.679 2.77745C163.835 2.77745 163.971 2.69787 164.08 2.53872C164.193 2.38299 164.279 2.2539 164.342 2.161L165.058 2.731L161.342 8.45865L160.865 8.12738C160.865 8.03107 160.858 7.9351 160.842 7.84221C160.825 7.74624 160.802 7.63661 160.768 7.51093C160.706 7.166 160.391 6.80808 159.817 6.44675C159.244 6.08542 158.535 5.75756 157.693 5.47546C156.854 5.19064 155.963 4.95191 155.024 4.76612C154.086 4.57419 153.221 4.47788 152.425 4.47788C151.09 4.47788 149.814 4.67016 148.591 5.04788C147.368 5.42594 146.3 5.97955 145.395 6.70528C144.491 7.43102 143.764 8.32273 143.228 9.38008C142.687 10.4378 142.415 11.6474 142.415 13.0033C142.415 14.3588 142.687 15.5654 143.228 16.6227C143.764 17.6835 144.491 18.5752 145.395 19.301C146.3 20.0236 147.368 20.5771 148.591 20.9583C149.814 21.3362 151.09 21.5251 152.425 21.5251C153.443 21.5251 154.507 21.4059 155.621 21.1671C156.731 20.9352 157.749 20.6335 158.671 20.2722C159.592 19.9075 160.368 19.4998 160.984 19.039C161.604 18.5817 161.912 18.1476 161.912 17.7398C161.912 17.5178 161.849 17.3287 161.723 17.1698L162.389 16.7918L165.538 21.807L165.154 22.188" fill="#231F20"/>
<path d="M175.26 24.7456C175.674 24.6796 175.999 24.4771 176.238 24.1291C176.476 23.7844 176.705 23.3867 176.927 22.9458L185.747 4.52642C185.969 4.11557 186.168 3.73751 186.344 3.39292C186.516 3.04149 186.606 2.74641 186.606 2.4913C186.606 2.17642 186.493 1.95408 186.271 1.8284C186.049 1.70238 185.81 1.60608 185.555 1.54631V0.69114H193.613V1.54631C193.391 1.60608 193.169 1.69555 192.947 1.80484C192.724 1.91754 192.612 2.14329 192.612 2.4913C192.612 2.74641 192.665 2.99846 192.778 3.24709C192.89 3.5022 193.056 3.83348 193.282 4.24467L203.192 23.5125C203.352 23.8606 203.567 24.1126 203.839 24.2716C204.11 24.4274 204.415 24.5864 204.767 24.7456V25.5974H196.377V24.7456C196.507 24.7456 196.663 24.6992 196.855 24.6031C197.047 24.5038 197.14 24.3646 197.14 24.1756C197.14 23.8606 197.014 23.4497 196.759 22.9458L194.949 19.4422H183.318L181.601 22.8034C181.283 23.4662 181.123 23.9404 181.123 24.222C181.123 24.5702 181.425 24.7456 182.028 24.7456V25.5974H175.26V24.7456ZM193.232 15.9387L189.228 7.13189L184.746 15.9387H193.232Z" fill="#231F20"/>
<path d="M215.636 24.7456C216.239 24.7456 216.541 24.4574 216.541 23.8905V2.39533C216.541 1.82841 216.239 1.54631 215.636 1.54631V0.69114H223.79V1.54631C223.531 1.54631 223.405 1.70238 223.405 2.01385C223.405 2.26897 223.724 2.71329 224.36 3.34306L238.043 17.4534V2.39533C238.043 1.82841 237.629 1.54631 236.8 1.54631V0.69114H243.999V1.54631C243.396 1.54631 243.094 1.82841 243.094 2.39533V23.8905C243.094 24.4574 243.396 24.7456 243.999 24.7456V25.5974H236.28V24.7456C236.691 24.7456 236.896 24.5998 236.896 24.318C236.896 24.096 236.641 23.7347 236.134 23.2276L221.596 8.17251V23.8905C221.596 24.4574 221.957 24.7456 222.69 24.7456V25.5974H215.636V24.7456" fill="#231F20"/>
<path d="M114.27 25.2668H113.517L113.69 19.2671L107.71 20.2615L108.738 18.0242L103.302 13.1218L104.588 12.6313L103.328 8.67686L105.817 9.36298L107.034 7.44704L110.773 10.9575L110.16 4.0431L111.877 4.89485L114.263 -0.000855958L116.653 4.89485L118.367 4.0431L117.754 10.9575L121.035 7.44704L122.255 9.36298L125.487 8.46136L124.582 12.6313L125.831 13.0289L119.789 18.0242L120.866 20.2615L114.88 19.2671L115.052 25.2668H114.27" fill="#EE2722"/>
<path d="M141.752 51.3684V36.3366H143.741V49.5952H151.146V51.3684H141.752Z" fill="#231F20"/>
<path d="M160.99 51.3689H162.979V36.3372H160.99V51.3689Z" fill="#231F20"/>
<path d="M177.924 51.3684L172.1 36.3366H174.254L178.159 47.2548C178.474 48.1301 178.736 48.9521 178.948 49.7179C179.183 48.8958 179.452 48.0771 179.76 47.2548L183.82 36.3366H185.849L179.966 51.3684H177.924Z" fill="#231F20"/>
<path d="M195.111 51.3689H197.1V36.3372H195.111V51.3689Z" fill="#231F20"/>
<path d="M207.729 51.3684V36.3366H209.771L217.667 48.14V36.3366H219.573V51.3684H217.53L209.635 39.5552V51.3684H207.729Z" fill="#231F20"/>
<path d="M237.09 45.4722V43.709L243.457 43.6987V49.2775C242.479 50.0565 241.472 50.6429 240.431 51.0342C239.393 51.4287 238.326 51.624 237.232 51.624C235.757 51.624 234.415 51.3092 233.208 50.6763C232.001 50.0432 231.09 49.1287 230.477 47.9319C229.86 46.7352 229.552 45.3995 229.552 43.9242C229.552 42.459 229.86 41.097 230.47 39.8273C231.083 38.5612 231.962 37.6166 233.112 37.0036C234.259 36.3867 235.581 36.0787 237.08 36.0787C238.167 36.0787 239.148 36.2542 240.026 36.6091C240.905 36.9605 241.594 37.4506 242.094 38.0807C242.592 38.7071 242.973 39.5291 243.231 40.54L241.438 41.0342C241.213 40.2651 240.931 39.665 240.596 39.2276C240.262 38.79 239.784 38.4386 239.161 38.1766C238.538 37.9151 237.848 37.7823 237.09 37.7823C236.181 37.7823 235.396 37.9216 234.733 38.1968C234.066 38.4748 233.533 38.8399 233.129 39.2905C232.721 39.7412 232.403 40.2354 232.177 40.7757C231.796 41.7067 231.604 42.7144 231.604 43.8016C231.604 45.141 231.836 46.2612 232.297 47.1628C232.757 48.0675 233.43 48.7372 234.312 49.1747C235.194 49.6125 236.128 49.831 237.12 49.831C237.981 49.831 238.823 49.6655 239.642 49.3338C240.464 49.0026 241.087 48.6477 241.508 48.2731V45.4722H237.09" fill="#231F20"/>
</g>
<defs>
<clipPath id="clip0">
<rect width="244" height="51.6244" fill="white"/>
</clipPath>
</defs>
</svg>
